<svg width="14" height="13" viewBox="0 0 14 13" fill="none" xmlns="http://www.w3.org/2000/svg">
<path d="M7 0.25C3.55375 0.25 0.75 3.05375 0.75 6.5C0.75 9.94625 3.55375 12.75 7 12.75C10.4462 12.75 13.25 9.94625 13.25 6.5C13.25 3.05375 10.4462 0.25 7 0.25ZM7 2.8125C7.1607 2.8125 7.31779 2.86015 7.4514 2.94943C7.58502 3.03871 7.68916 3.1656 7.75065 3.31407C7.81215 3.46253 7.82824 3.6259 7.79689 3.78351C7.76554 3.94112 7.68815 4.08589 7.57452 4.19952C7.46089 4.31315 7.31612 4.39054 7.15851 4.42189C7.0009 4.45324 6.83753 4.43715 6.68907 4.37565C6.5406 4.31416 6.41371 4.21002 6.32443 4.0764C6.23515 3.94279 6.1875 3.7857 6.1875 3.625C6.1875 3.40951 6.2731 3.20285 6.42548 3.05048C6.57785 2.8981 6.78451 2.8125 7 2.8125ZM8.5 9.875H5.75C5.61739 9.875 5.49021 9.82232 5.39645 9.72855C5.30268 9.63479 5.25 9.50761 5.25 9.375C5.25 9.24239 5.30268 9.11521 5.39645 9.02145C5.49021 8.92768 5.61739 8.875 5.75 8.875H6.625V6.125H6.125C5.99239 6.125 5.86521 6.07232 5.77145 5.97855C5.67768 5.88479 5.625 5.75761 5.625 5.625C5.625 5.49239 5.67768 5.36521 5.77145 5.27145C5.86521 5.17768 5.99239 5.125 6.125 5.125H7.125C7.25761 5.125 7.38479 5.17768 7.47855 5.27145C7.57232 5.36521 7.625 5.49239 7.625 5.625V8.875H8.5C8.63261 8.875 8.75979 8.92768 8.85355 9.02145C8.94732 9.11521 9 9.24239 9 9.375C9 9.50761 8.94732 9.63479 8.85355 9.72855C8.75979 9.82232 8.63261 9.875 8.5 9.875Z" fill="#111111"/>
</svg>
